<?xml version="1.0" encoding="utf-8"?>
<?xml-stylesheet type="text/xsl" href="rss1.xsl"?>
<rss version="2.0" xmlns:atom="http://www.w3.org/2005/Atom" xmlns:content="http://purl.org/rss/1.0/modules/content/" xmlns:dc="http://purl.org/dc/elements/1.1/" xmlns:media="http://search.yahoo.com/mrss/">
<channel>
 <title>Getty</title>
 <link>http://www.gettyimg.com/</link>
 <atom:link href="http://www.gettyimg.com/" rel="self" type="application/rss+xml" />

 
                <item>
                <title><![CDATA[【Music Videos】Dua Lipa - Training Season - By RK✪ [1080P AM WEB-DL AVC DDP 5.1 ATMOS]]]></title>
                <link><![CDATA[https://sharemania.us/threads/dua-lipa-training-season-by-rk%E2%9C%AA-1080p-am-web-dl-avc-ddp-5-1-atmos.237910/]]></link>
                <description><![CDATA[<article>
<blockquote class="messageText SelectQuoteContainer ugc baseHtml">
<b>Dua Lipa - Training Season - By RK✪ [1080P AM WEB-DL AVC DDP 5.1 ATMOS]</b><br>
<br>
<b><i><span style="color: #0080ff">Hear The Difference!!</span></i></b><br>
<br>
<div class="bbCodeBlock bbCodeCode">
<div class="type">Code:</div>
<pre>Media Info:
Format                      : Matroska
Format version              : Version 4
File size                   : 278 MiB
Duration                    : 3 min 29 s
Overall bit rate            : 11.1 Mb/s
Frame rate                  : 23.976 FPS
Movie name                  : Dua Lipa - Training Season - By RK✪
Encoded date                : 2024-02-17 08:10:34 UTC
Writing application         : mkvmerge v81.0 ('Milliontown') 64-bit
Writing library             : libebml v1.4.4 + libmatroska v1.7.1
Video
ID                          : 1
Format                      : AVC
Format/Info                 : Advanced Video Codec
Format profile              : High@L4
Format settings             : CABAC / 5 Ref Frames
Format settings, CABAC      : Yes
Format settings, Reference  : 5 frames
Format settings, Slice coun : 8 slices per frame
Codec ID                    : V_MPEG4/ISO/AVC
Duration                    : 3 min 29 s
Bit rate                    : 10.1 Mb/s
Width                       : 1 440 pixels
Height                      : 1 080 pixels
Display aspect ratio        : 4:3
Frame rate mode             : Constant
Frame rate                  : 23.976 (23976/1000) FPS
Color space                 : YUV
Chroma subsampling          : 4:2:0
Bit depth                   : 8 bits
Scan type                   : Progressive
Bits/(Pixel*Frame)          : 0.271
Stream size                 : 252 MiB (91%)
Title                       : - By RK✪
Default                     : Yes
Forced                      : No
Color range                 : Limited
Color primaries             : BT.709
Transfer characteristics    : BT.709
Matrix coefficients         : BT.709
Audio #1
ID                          : 2
Format                      : E-AC-3 JOC
Format/Info                 : Enhanced AC-3 with Joint Object Coding
Commercial name             : Dolby Digital Plus with Dolby Atmos
Codec ID                    : A_EAC3
Duration                    : 3 min 29 s
Bit rate mode               : Constant
Bit rate                    : 768 kb/s
Channel(s)                  : 6 channels
Channel layout              : L R C LFE Ls Rs
Sampling rate               : 48.0 kHz
Frame rate                  : 31.250 FPS (1536 SPF)
Compression mode            : Lossy
Delay relative to video     : -17 ms
Stream size                 : 19.2 MiB (7%)
Title                       : - By RK✪
Language                    : English
Service kind                : Complete Main
Default                     : Yes
Forced                      : No
Complexity index            : 16
Number of dynamic objects   : 15
Bed channel count           : 1 channel
Bed channel configuration   : LFE
Audio #2
ID                          : 3
Format                      : AAC LC
Format/Info                 : Advanced Audio Codec Low Complexity
Codec ID                    : A_AAC-2
Duration                    : 3 min 29 s
Bit rate                    : 265 kb/s
Channel(s)                  : 2 channels
Channel layout              : L R
Sampling rate               : 48.0 kHz
Frame rate                  : 46.875 FPS (1024 SPF)
Compression mode            : Lossy
Delay relative to video     : 1 ms
Stream size                 : 6.56 MiB (2%)
Title                       : - By RK✪
Language                    : English
Default                     : No
Forced                      : No
Text
ID                          : 4
Format                      : UTF-8
Codec ID                    : S_TEXT/UTF8
Codec ID/Info               : UTF-8 Plain Text
Duration                    : 3 min 20 s
Bit rate                    : 70 b/s
Frame rate                  : 0.265 FPS
Count of elements           : 53
Stream size                 : 1.72 KiB (0%)
Title                       : - By RK✪
Language                    : English
Default                     : Yes
Forced                      : No
</pre>
</div><b><span style="color: #ff0000">Password:</span></b><br>
<br>
<div class="bbCodeBlock bbCodeVfcHH HiddenContent">
<div class="attribution type">Hidden Content:</div>
<blockquote>You must reply before you can see the hidden data contained here.</blockquote>
</div><b><span style="color: #00ff00">Link:</span></b><br>
<br>
<div class="bbCodeBlock bbCodeVfcHH HiddenContent">
<div class="attribution type">Hidden Content:</div>
<blockquote>You must reply before you can see the hidden data contained here.</blockquote>
</div>
<div class="messageTextEndMarker">&nbsp;</div>
</blockquote>
</article>]]></description>
                <author><![CDATA[RK94]]></author>
                </item>

                </channel></rss>